<svg xmlns="http://www.w3.org/2000/svg" width="88" height="48" viewBox="0 0 88 48">
  <g id="aws" transform="translate(-39.538 -204.853)">
    <rect id="Rectangle_6688" data-name="Rectangle 6688" width="88" height="48" transform="translate(39.538 204.853)" opacity="0"/>
    <g id="amazon-web-services-aws-seeklogo.com_Converted_" data-name="amazon-web-services-aws-seeklogo.com [Converted]" transform="translate(61.441 215.646)">
      <path id="Path_23537" data-name="Path 23537" d="M72.723,119.692A4.446,4.446,0,0,0,72.885,121a7.865,7.865,0,0,0,.47,1.058.639.639,0,0,1,.1.338.588.588,0,0,1-.279.441l-.926.617a.7.7,0,0,1-.382.132.676.676,0,0,1-.441-.206,4.545,4.545,0,0,1-.529-.691c-.147-.25-.294-.529-.455-.867a5.428,5.428,0,0,1-4.32,2.028,4.026,4.026,0,0,1-2.939-1.058,4.145,4.145,0,0,1,.25-5.848,5.345,5.345,0,0,1,3.6-1.146,11.631,11.631,0,0,1,1.557.118c.544.073,1.1.191,1.69.323v-1.073a3.256,3.256,0,0,0-.691-2.351,3.358,3.358,0,0,0-2.395-.676,6.686,6.686,0,0,0-1.587.191,11.705,11.705,0,0,0-1.587.5,4.215,4.215,0,0,1-.514.191.9.9,0,0,1-.235.044c-.206,0-.309-.147-.309-.455v-.72a.93.93,0,0,1,.1-.514,1.1,1.1,0,0,1,.411-.309,8.458,8.458,0,0,1,1.851-.661,8.908,8.908,0,0,1,2.292-.279,5.369,5.369,0,0,1,3.85,1.19,4.8,4.8,0,0,1,1.22,3.615v4.761Zm-5.965,2.233a4.762,4.762,0,0,0,1.513-.264,3.274,3.274,0,0,0,1.4-.94,2.332,2.332,0,0,0,.5-.94,5.275,5.275,0,0,0,.147-1.278v-.617a12.27,12.27,0,0,0-1.352-.25,11.072,11.072,0,0,0-1.381-.088,3.387,3.387,0,0,0-2.189.588,2.415,2.415,0,0,0-.176,3.247A2.119,2.119,0,0,0,66.758,121.925Zm11.8,1.587a.82.82,0,0,1-.558-.147,1.2,1.2,0,0,1-.309-.573l-3.453-11.358a2.574,2.574,0,0,1-.132-.588.322.322,0,0,1,.353-.367H75.9a.814.814,0,0,1,.573.147,1.452,1.452,0,0,1,.294.573l2.468,9.727,2.292-9.727a1.031,1.031,0,0,1,.279-.573,1.011,1.011,0,0,1,.588-.147h1.175a.884.884,0,0,1,.588.147.99.99,0,0,1,.279.573l2.322,9.844L89.3,111.2a1.261,1.261,0,0,1,.294-.573.958.958,0,0,1,.573-.147H91.53a.326.326,0,0,1,.367.367,1.468,1.468,0,0,1-.029.235,2.09,2.09,0,0,1-.1.367l-3.541,11.358a1.127,1.127,0,0,1-.309.573.94.94,0,0,1-.558.147H86.094a.884.884,0,0,1-.588-.147,1.042,1.042,0,0,1-.279-.588l-2.277-9.477-2.263,9.462a1.148,1.148,0,0,1-.279.588.911.911,0,0,1-.588.147Zm18.881.4a9.724,9.724,0,0,1-2.263-.264,6.685,6.685,0,0,1-1.69-.588,1.059,1.059,0,0,1-.455-.411,1.038,1.038,0,0,1-.088-.411v-.749c0-.309.118-.455.338-.455a.832.832,0,0,1,.264.044c.088.029.22.088.367.147a7.991,7.991,0,0,0,1.616.514,8.823,8.823,0,0,0,1.748.176,3.964,3.964,0,0,0,2.145-.485,1.582,1.582,0,0,0,.764-1.4,1.431,1.431,0,0,0-.4-1.029,3.687,3.687,0,0,0-1.484-.764l-2.13-.661a4.481,4.481,0,0,1-2.351-1.5,3.5,3.5,0,0,1-.735-2.13,3.271,3.271,0,0,1,.4-1.631,3.778,3.778,0,0,1,1.058-1.2,4.664,4.664,0,0,1,1.528-.764,6.4,6.4,0,0,1,1.851-.25,7.375,7.375,0,0,1,.984.059c.338.044.646.1.955.162a6.277,6.277,0,0,1,.838.235,3.205,3.205,0,0,1,.617.264,1.271,1.271,0,0,1,.441.367.792.792,0,0,1,.132.485v.691c0,.309-.118.47-.338.47a1.528,1.528,0,0,1-.558-.176,6.722,6.722,0,0,0-2.821-.573,3.792,3.792,0,0,0-1.954.411,1.419,1.419,0,0,0-.691,1.308,1.387,1.387,0,0,0,.441,1.043,4.389,4.389,0,0,0,1.616.808l2.086.661a4.469,4.469,0,0,1,2.277,1.411,3.325,3.325,0,0,1,.676,2.057,3.778,3.778,0,0,1-.382,1.7,3.951,3.951,0,0,1-1.073,1.293,4.736,4.736,0,0,1-1.631.823A6.987,6.987,0,0,1,97.437,123.909Z" transform="translate(-60.265 -110.1)" fill="#252f3e"/>
      <path id="Path_23538" data-name="Path 23538" d="M89.609,226.675c-4.834,3.57-11.857,5.466-17.9,5.466a32.376,32.376,0,0,1-21.849-8.331c-.455-.411-.044-.97.5-.646a43.393,43.393,0,0,0,38.54,2.395C89.712,225.191,90.4,226.087,89.609,226.675Zm2.013-2.292c-.617-.793-4.085-.382-5.657-.191-.47.059-.544-.353-.118-.661,2.762-1.939,7.3-1.381,7.831-.735s-.147,5.2-2.733,7.376c-.4.338-.779.162-.6-.279C90.931,228.438,92.239,225.161,91.622,224.383Z" transform="translate(-49.66 -205.725)" fill="#f90"/>
    </g>
  </g>
</svg>
